<mxfile host="app.diagrams.net" modified="2024-07-15T07:58:02.449Z" agent="Mozilla/5.0 (Windows NT 10.0; Win64; x64; rv:128.0) Gecko/20100101 Firefox/128.0" etag="III9aPytyjxJhc9KUhAh" version="24.6.5" type="github">
  <diagram name="Page-1" id="XG4w8c8PiCC3QDVeqw-d">
    <mxGraphModel dx="2229" dy="512" grid="1" gridSize="10" guides="1" tooltips="1" connect="1" arrows="1" fold="1" page="1" pageScale="1" pageWidth="850" pageHeight="1100" math="0" shadow="0">
      <root>
        <mxCell id="0" />
        <mxCell id="1" parent="0" />
        <mxCell id="uJTnlv1TfCUuvsMiO2Dd-9" value="" style="edgeStyle=orthogonalEdgeStyle;rounded=0;orthogonalLoop=1;jettySize=auto;html=1;" edge="1" parent="1" source="uJTnlv1TfCUuvsMiO2Dd-7" target="uJTnlv1TfCUuvsMiO2Dd-8">
          <mxGeometry relative="1" as="geometry" />
        </mxCell>
        <mxCell id="uJTnlv1TfCUuvsMiO2Dd-11" value="Yes" style="edgeLabel;html=1;align=center;verticalAlign=middle;resizable=0;points=[];" vertex="1" connectable="0" parent="uJTnlv1TfCUuvsMiO2Dd-9">
          <mxGeometry x="0.5936" y="-2" relative="1" as="geometry">
            <mxPoint as="offset" />
          </mxGeometry>
        </mxCell>
        <mxCell id="uJTnlv1TfCUuvsMiO2Dd-7" value="Start application" style="strokeWidth=2;html=1;shape=mxgraph.flowchart.start_1;whiteSpace=wrap;" vertex="1" parent="1">
          <mxGeometry x="100" y="30" width="100" height="60" as="geometry" />
        </mxCell>
        <mxCell id="uJTnlv1TfCUuvsMiO2Dd-8" value="Login" style="rounded=1;whiteSpace=wrap;html=1;absoluteArcSize=1;arcSize=14;strokeWidth=2;" vertex="1" parent="1">
          <mxGeometry x="100" y="280" width="100" height="40" as="geometry" />
        </mxCell>
        <mxCell id="uJTnlv1TfCUuvsMiO2Dd-13" value="" style="edgeStyle=orthogonalEdgeStyle;rounded=0;orthogonalLoop=1;jettySize=auto;html=1;" edge="1" parent="1" source="uJTnlv1TfCUuvsMiO2Dd-10" target="uJTnlv1TfCUuvsMiO2Dd-12">
          <mxGeometry relative="1" as="geometry" />
        </mxCell>
        <mxCell id="uJTnlv1TfCUuvsMiO2Dd-14" value="No" style="edgeLabel;html=1;align=center;verticalAlign=middle;resizable=0;points=[];" vertex="1" connectable="0" parent="uJTnlv1TfCUuvsMiO2Dd-13">
          <mxGeometry x="-0.7443" y="-1" relative="1" as="geometry">
            <mxPoint x="-14" y="1" as="offset" />
          </mxGeometry>
        </mxCell>
        <mxCell id="uJTnlv1TfCUuvsMiO2Dd-10" value="Login" style="strokeWidth=2;html=1;shape=mxgraph.flowchart.decision;whiteSpace=wrap;" vertex="1" parent="1">
          <mxGeometry x="100" y="130" width="100" height="90" as="geometry" />
        </mxCell>
        <mxCell id="uJTnlv1TfCUuvsMiO2Dd-15" style="edgeStyle=orthogonalEdgeStyle;rounded=0;orthogonalLoop=1;jettySize=auto;html=1;entryX=0;entryY=0.5;entryDx=0;entryDy=0;" edge="1" parent="1" source="uJTnlv1TfCUuvsMiO2Dd-12" target="uJTnlv1TfCUuvsMiO2Dd-8">
          <mxGeometry relative="1" as="geometry">
            <Array as="points">
              <mxPoint y="300" />
            </Array>
          </mxGeometry>
        </mxCell>
        <mxCell id="uJTnlv1TfCUuvsMiO2Dd-12" value="Reset password" style="rounded=1;whiteSpace=wrap;html=1;absoluteArcSize=1;arcSize=14;strokeWidth=2;" vertex="1" parent="1">
          <mxGeometry x="-50" y="155" width="100" height="40" as="geometry" />
        </mxCell>
      </root>
    </mxGraphModel>
  </diagram>
</mxfile>
